<svg width="436" height="252" viewBox="0 0 436 252" fill="none" xmlns="http://www.w3.org/2000/svg">
<g clip-path="url(#clip0)">
<path d="M306.433 131.392L278.631 144.55L303.237 126.151C299.238 119.908 294.746 113.997 289.802 108.472L169.228 138.441L278.141 96.8946C273.164 92.5034 267.878 88.4747 262.325 84.8396L78.5976 114.433C59.0904 138.827 48.4564 169.128 48.4414 200.362H325.001C324.99 176.139 318.585 152.347 306.433 131.392Z" fill="#F2F2F2"/>
<path d="M247.288 76.2965C219.472 62.7675 187.925 58.9483 157.684 65.4488C127.443 71.9493 100.252 88.3946 80.4526 112.159C123.888 102.642 199.513 86.1672 247.288 76.2965Z" fill="#F2F2F2"/>
<path d="M222.221 78.9669C217.488 92.9801 210.231 105.748 195.44 105.748C180.649 105.748 169.491 93.7344 168.658 78.9669C167.593 60.0969 180.307 52.1072 195.44 52.1854C213.316 52.2777 227.838 62.3365 222.221 78.9669Z" fill="#2F2E41"/>
<path d="M217.15 75.4043H173.344V139.244H217.15V75.4043Z" fill="#2F2E41"/>
<path d="M188.712 112.059C188.712 112.059 190.114 132.142 186.844 135.412C183.575 138.681 215.801 141.483 215.334 137.747C214.867 134.01 208.796 109.724 210.664 104.587C212.532 99.449 188.712 112.059 188.712 112.059Z" fill="#FFB8B8"/>
<path opacity="0.1" d="M188.712 112.059C188.712 112.059 190.114 132.142 186.844 135.412C183.575 138.681 215.801 141.483 215.334 137.747C214.867 134.01 208.796 109.724 210.664 104.587C212.532 99.449 188.712 112.059 188.712 112.059Z" fill="black"/>
<path d="M157.892 163.436L141.11 220.182L140.438 222.468H112.199C123.435 187.687 151.213 136.397 151.213 136.397L155.549 135.414L157.892 163.436Z" fill="#DF0229"/>
<path opacity="0.1" d="M157.892 163.436L141.11 220.182L140.438 222.468H112.199C123.435 187.687 151.213 136.397 151.213 136.397L155.549 135.414L157.892 163.436Z" fill="black"/>
<path d="M194.317 119.065C205.924 119.065 215.334 109.655 215.334 98.0479C215.334 86.4404 205.924 77.0308 194.317 77.0308C182.709 77.0308 173.3 86.4404 173.3 98.0479C173.3 109.655 182.709 119.065 194.317 119.065Z" fill="#FFB8B8"/>
<path d="M216.735 131.675C216.735 131.675 209.262 138.681 200.856 137.28C192.449 135.878 188.919 125.655 188.919 125.655L180.773 131.675C180.773 131.675 178.437 148.489 189.179 150.357C199.921 152.225 215.334 152.692 218.603 150.357C221.873 148.022 216.735 131.675 216.735 131.675Z" fill="#3F3D56"/>
<path d="M242.425 156.424L241.084 160.779L222.163 222.468H140.729C140.902 221.715 141.029 220.951 141.11 220.182C142.164 211.401 141.543 189.249 141.543 187.725C141.543 185.853 149.477 139.619 151.354 136.345C151.645 135.949 152.027 135.63 152.469 135.414C154.646 134.163 159.462 132.761 164.655 131.524C164.66 131.52 164.66 131.52 164.664 131.52C167.566 130.814 170.595 130.165 173.342 129.615H173.347C176.042 129.074 178.459 128.632 180.228 128.34C181.181 128.157 182.144 128.024 183.111 127.94C183.544 127.94 183.859 128.453 184.07 129.239C184.781 131.797 184.508 137.277 184.508 137.277C185.139 138.001 185.841 138.66 186.605 139.243C188.401 140.654 190.371 141.828 192.466 142.737C194.262 143.525 196.122 144.159 198.025 144.633H198.03C200.03 145.14 202.066 145.493 204.121 145.691C205.795 145.884 207.488 145.85 209.153 145.592H209.163C214.115 144.774 215.931 141.698 216.777 139.243C216.928 138.796 217.045 138.368 217.149 137.977C217.149 137.973 217.154 137.963 217.154 137.959C217.464 136.759 217.596 135.917 217.925 135.931H217.93C218.781 136.011 229.519 145.216 236.494 151.26C239.805 154.124 242.265 156.287 242.415 156.419L242.425 156.424Z" fill="#DF0229"/>
<path opacity="0.1" d="M241.084 160.779L222.162 222.468H214.491C215.181 221.458 215.48 220.231 215.333 219.016C215.089 217.295 220.417 199.756 225.549 183.435C230.214 168.606 234.716 154.797 234.716 154.797L239.151 156.894C239.151 156.894 239.946 158.395 241.084 160.779Z" fill="black"/>
<path d="M254.568 216.674C253.647 216.904 253.745 219.642 253.694 222.468H217.45C217.891 221.923 218.22 221.295 218.418 220.622C218.617 219.949 218.681 219.243 218.607 218.546C218.367 216.895 221.941 199.873 225.549 183.435C228.385 170.435 231.245 157.797 232.237 153.4C232.482 152.337 232.613 151.763 232.613 151.763L233.041 151.965L233.051 151.97L242.415 156.419L242.424 156.424C242.424 156.424 256.901 183.986 252.236 190.523C247.56 197.061 247.56 197.061 249.428 200.334C251.295 203.598 256.431 216.208 254.568 216.674Z" fill="#DF0229"/>
<path d="M195.439 57.8237C201.278 57.8237 206.011 53.0906 206.011 47.2521C206.011 41.4135 201.278 36.6804 195.439 36.6804C189.601 36.6804 184.868 41.4135 184.868 47.2521C184.868 53.0906 189.601 57.8237 195.439 57.8237Z" fill="#2F2E41"/>
<path d="M182.754 41.6136C182.754 38.993 183.727 36.4658 185.485 34.5223C187.243 32.5788 189.66 31.3575 192.268 31.0954C191.92 31.0608 191.568 31.042 191.211 31.042C188.407 31.042 185.718 32.1558 183.736 34.1384C181.753 36.1209 180.639 38.8098 180.639 41.6136C180.639 44.4174 181.753 47.1063 183.736 49.0889C185.718 51.0715 188.407 52.1853 191.211 52.1853C191.568 52.1853 191.92 52.1664 192.268 52.1319C189.66 51.8697 187.243 50.6484 185.485 48.7049C183.727 46.7614 182.754 44.2343 182.754 41.6136Z" fill="#2F2E41"/>
<path d="M187.663 71.5679C187.663 71.5679 187.443 70.3391 178.809 73.5766C170.176 76.8141 165.001 100.705 169.318 114.735C171.057 120.388 169.642 124.465 167.332 127.317C158.665 138.02 162.077 154.095 174.702 159.599C175.058 159.754 175.422 159.908 175.793 160.059L181.188 163.297C181.188 163.297 174.31 154.246 177.752 142.669C180.742 132.804 181.111 122.331 178.823 112.281C178.428 110.585 177.98 108.838 177.47 107.054C173.154 91.946 175.253 93.6908 190.361 78.5825C190.361 78.5825 198.995 85.0574 206.549 88.2949C214.103 91.5324 220.578 94.7699 215.182 105.562C209.786 116.353 196.836 126.066 205.47 140.095C214.103 154.124 215.182 148.728 214.103 154.124L213.024 159.52L219.499 153.045L215.182 161.678C215.182 161.678 229.211 161.678 233.528 150.887L235.686 153.045C235.686 153.045 244.32 137.937 228.132 123.907C228.132 123.907 222.736 120.67 230.29 109.878C237.845 99.0867 232.043 75.8846 222.33 71.5679C212.618 67.2513 187.663 71.5679 187.663 71.5679Z" fill="#2F2E41"/>
<path d="M194.317 139.529L176.336 170.674H180.539V174.877L200.975 139.529H194.317Z" fill="#3F3D56"/>
<path d="M428.945 201.773H356.043V230.464H428.945V201.773Z" fill="#F2F2F2"/>
<path d="M419.774 238.46H365.215V243.163H419.774V238.46Z" fill="#F2F2F2"/>
<path d="M419.774 246.926H365.215V250.688H419.774V246.926Z" fill="#F2F2F2"/>
<path d="M7.52538 7.52537C8.56441 7.52537 9.40672 6.68307 9.40672 5.64403C9.40672 4.605 8.56441 3.7627 7.52538 3.7627C6.48635 3.7627 5.64404 4.605 5.64404 5.64403C5.64404 6.68307 6.48635 7.52537 7.52538 7.52537Z" fill="#DF0229"/>
<path d="M12.6992 7.52537C13.7382 7.52537 14.5805 6.68307 14.5805 5.64403C14.5805 4.605 13.7382 3.7627 12.6992 3.7627C11.6602 3.7627 10.8179 4.605 10.8179 5.64403C10.8179 6.68307 11.6602 7.52537 12.6992 7.52537Z" fill="#DF0229"/>
<path d="M17.873 7.52537C18.9121 7.52537 19.7544 6.68307 19.7544 5.64403C19.7544 4.605 18.9121 3.7627 17.873 3.7627C16.834 3.7627 15.9917 4.605 15.9917 5.64403C15.9917 6.68307 16.834 7.52537 17.873 7.52537Z" fill="#DF0229"/>
<path d="M436 251.159H0V0H436V251.159ZM0.940669 250.218H435.059V0.940669H0.940669V250.218Z" fill="#2F2E41"/>
<path d="M435.53 9.44727H0.470215V10.3879H435.53V9.44727Z" fill="#2F2E41"/>
<path d="M19.7541 17.4023H5.64404V18.343H19.7541V17.4023Z" fill="#2F2E41"/>
<path d="M19.7541 21.165H5.64404V22.1057H19.7541V21.165Z" fill="#2F2E41"/>
<path d="M19.7541 24.9277H5.64404V25.8684H19.7541V24.9277Z" fill="#2F2E41"/>
<path d="M300.544 25.8684H125.579V17.4023H300.544V25.8684ZM126.52 24.9277H299.603V18.343H126.52V24.9277Z" fill="#2F2E41"/>
<path d="M293.489 22.8113C293.117 22.8113 292.753 22.7009 292.444 22.4942C292.134 22.2875 291.893 21.9936 291.751 21.6499C291.608 21.3061 291.571 20.9278 291.644 20.5629C291.716 20.1979 291.895 19.8627 292.158 19.5996C292.422 19.3365 292.757 19.1573 293.122 19.0847C293.487 19.0121 293.865 19.0494 294.209 19.1918C294.553 19.3342 294.846 19.5753 295.053 19.8847C295.26 20.1941 295.37 20.5578 295.37 20.9299C295.37 21.4287 295.171 21.9069 294.818 22.2596C294.466 22.6123 293.988 22.8107 293.489 22.8113ZM293.489 19.9893C293.303 19.9893 293.121 20.0444 292.966 20.1478C292.811 20.2511 292.691 20.3981 292.62 20.5699C292.548 20.7418 292.53 20.931 292.566 21.1134C292.602 21.2959 292.692 21.4635 292.824 21.5951C292.955 21.7266 293.123 21.8162 293.305 21.8525C293.488 21.8888 293.677 21.8702 293.849 21.799C294.021 21.7278 294.168 21.6072 294.271 21.4525C294.374 21.2978 294.429 21.116 294.429 20.9299C294.429 20.6805 294.33 20.4414 294.154 20.2651C293.977 20.0887 293.738 19.9895 293.489 19.9893Z" fill="#2F2E41"/>
<path d="M294.785 21.6163L294.13 22.2915L295.983 24.0895L296.638 23.4143L294.785 21.6163Z" fill="#2F2E41"/>
<path d="M405.898 25.8684H396.492V17.4023H405.898V25.8684ZM397.432 24.9277H404.958V18.343H397.432V24.9277Z" fill="#2F2E41"/>
<path d="M417.657 25.8684H408.25V17.4023H417.657V25.8684ZM409.191 24.9277H416.716V18.343H409.191V24.9277Z" fill="#2F2E41"/>
<path d="M429.415 25.8684H420.008V17.4023H429.415V25.8684ZM420.949 24.9277H428.474V18.343H420.949V24.9277Z" fill="#2F2E41"/>
<path d="M321.238 228.112H312.772V235.638H321.238V228.112Z" fill="#FF6584"/>
<path d="M332.997 228.112H324.531V235.638H332.997V228.112Z" fill="#F2F2F2"/>
<path d="M344.755 228.112H336.289V235.638H344.755V228.112Z" fill="#F2F2F2"/>
<path d="M344.285 222.939H23.5166V40.449H344.285V222.939ZM24.4573 221.998H343.344V41.3896H24.4573V221.998Z" fill="#2F2E41"/>
<path d="M72.2499 206.183V210.602L64.9095 206.122C64.8704 206.099 64.826 206.087 64.7807 206.087C64.7354 206.086 64.6908 206.098 64.6514 206.121C64.6121 206.143 64.5793 206.175 64.5565 206.215C64.5337 206.254 64.5216 206.298 64.5215 206.344V216.028C64.5216 216.073 64.5337 216.118 64.5565 216.157C64.5793 216.196 64.6121 216.229 64.6514 216.251C64.6908 216.274 64.7354 216.285 64.7807 216.285C64.826 216.285 64.8704 216.272 64.9095 216.249L72.2499 211.769V216.188C72.25 216.222 72.2636 216.255 72.2876 216.279C72.3116 216.303 72.3442 216.317 72.3782 216.317H74.655C74.689 216.317 74.7216 216.303 74.7456 216.279C74.7697 216.255 74.7832 216.222 74.7833 216.188V206.183C74.7832 206.149 74.7697 206.117 74.7456 206.093C74.7216 206.069 74.689 206.055 74.655 206.055H72.3782C72.3442 206.055 72.3116 206.069 72.2876 206.093C72.2636 206.117 72.25 206.149 72.2499 206.183Z" fill="#3F3D56"/>
<path d="M52.6744 216.317H50.6284C50.5945 216.317 50.5609 216.311 50.5295 216.298C50.4981 216.285 50.4695 216.266 50.4454 216.242C50.4212 216.219 50.402 216.19 50.3889 216.159C50.3757 216.128 50.3688 216.094 50.3687 216.06V206.311C50.3688 206.278 50.3757 206.244 50.3889 206.213C50.402 206.182 50.4212 206.153 50.4454 206.129C50.4695 206.106 50.4981 206.087 50.5295 206.074C50.5609 206.061 50.5945 206.055 50.6284 206.055H52.6744C52.7083 206.055 52.7419 206.061 52.7733 206.074C52.8047 206.087 52.8333 206.106 52.8574 206.129C52.8815 206.153 52.9007 206.182 52.9139 206.213C52.927 206.244 52.9339 206.278 52.9341 206.311V216.06C52.9339 216.094 52.927 216.128 52.9139 216.159C52.9007 216.19 52.8815 216.219 52.8574 216.242C52.8333 216.266 52.8047 216.285 52.7733 216.298C52.7419 216.311 52.7083 216.317 52.6744 216.317ZM58.3184 216.317H56.2724C56.2385 216.317 56.2049 216.311 56.1735 216.298C56.1421 216.285 56.1135 216.266 56.0894 216.242C56.0652 216.219 56.046 216.19 56.0329 216.159C56.0197 216.128 56.0129 216.094 56.0127 216.06V206.311C56.0129 206.278 56.0197 206.244 56.0329 206.213C56.046 206.182 56.0652 206.153 56.0894 206.129C56.1135 206.106 56.1421 206.087 56.1735 206.074C56.2049 206.061 56.2385 206.055 56.2724 206.055H58.3184C58.3523 206.055 58.3859 206.061 58.4173 206.074C58.4487 206.087 58.4773 206.106 58.5014 206.129C58.5256 206.153 58.5447 206.182 58.5579 206.213C58.5711 206.244 58.5779 206.278 58.5781 206.311V216.06C58.5779 216.094 58.5711 216.128 58.5579 216.159C58.5447 216.19 58.5256 216.219 58.5014 216.242C58.4773 216.266 58.4487 216.285 58.4173 216.298C58.3859 216.311 58.3523 216.317 58.3184 216.317Z" fill="#3F3D56"/>
<path d="M37.1567 206.321V216.051C37.1542 216.096 37.1639 216.141 37.1848 216.181C37.2058 216.221 37.2371 216.254 37.2755 216.278C37.314 216.302 37.3581 216.314 37.4032 216.315C37.4483 216.316 37.4928 216.304 37.5319 216.282L45.2443 211.417C45.282 211.392 45.313 211.358 45.3344 211.318C45.3558 211.278 45.367 211.233 45.367 211.188C45.367 211.142 45.3558 211.098 45.3344 211.058C45.313 211.018 45.282 210.983 45.2443 210.958L37.5319 206.094C37.4932 206.07 37.4488 206.058 37.4037 206.058C37.3585 206.058 37.3143 206.071 37.2757 206.094C37.2371 206.118 37.2056 206.151 37.1846 206.191C37.1637 206.231 37.154 206.276 37.1567 206.321Z" fill="#DF0229"/>
<path d="M328.999 199.422H38.8022V201.303H328.999V199.422Z" fill="#2F2E41"/>
<path d="M89.3632 199.422H38.8022V201.303H89.3632V199.422Z" fill="#DF0229"/>
<path d="M157.091 229.053H23.9868V234.226H157.091V229.053Z" fill="#F2F2F2"/>
<path d="M53.1475 240.811H23.9868V245.985H53.1475V240.811Z" fill="#F2F2F2"/>
<path d="M428.945 50.3259H356.043V79.0163H428.945V50.3259Z" fill="#F2F2F2"/>
<path d="M419.774 87.012H365.215V91.7153H419.774V87.012Z" fill="#F2F2F2"/>
<path d="M419.774 95.478H365.215V100.181H419.774V95.478Z" fill="#F2F2F2"/>
<path d="M419.774 103.944H365.215V108.647H419.774V103.944Z" fill="#F2F2F2"/>
<path d="M428.945 126.05H356.043V154.74H428.945V126.05Z" fill="#F2F2F2"/>
<path d="M419.774 162.736H365.215V167.439H419.774V162.736Z" fill="#F2F2F2"/>
<path d="M419.774 171.202H365.215V175.905H419.774V171.202Z" fill="#F2F2F2"/>
<path d="M419.774 179.668H365.215V184.371H419.774V179.668Z" fill="#F2F2F2"/>
<path d="M311.296 200.282L310.326 199.549C306.873 196.895 304.597 195.175 304.39 192.803C304.342 192.353 304.386 191.897 304.518 191.464C304.649 191.03 304.867 190.627 305.157 190.279C305.447 189.931 305.804 189.645 306.207 189.438C306.61 189.23 307.05 189.106 307.502 189.071C308.035 189.027 308.571 189.1 309.073 189.284C309.575 189.469 310.031 189.76 310.409 190.138C310.716 189.7 311.114 189.334 311.576 189.065C312.039 188.797 312.554 188.632 313.087 188.583C313.537 188.538 313.993 188.584 314.425 188.719C314.858 188.853 315.26 189.073 315.606 189.365C315.952 189.658 316.236 190.016 316.441 190.42C316.646 190.824 316.768 191.266 316.8 191.718C317.007 194.09 315.064 196.178 312.125 199.392L311.296 200.282Z" fill="#FF6584"/>
<path d="M322.786 188.191L322.254 187.097C320.384 183.165 319.136 180.599 320.028 178.391C320.191 177.968 320.436 177.582 320.751 177.256C321.065 176.929 321.442 176.669 321.858 176.491C322.275 176.313 322.723 176.22 323.176 176.218C323.629 176.216 324.078 176.305 324.496 176.479C324.991 176.682 325.435 176.991 325.799 177.383C326.163 177.775 326.437 178.241 326.602 178.75C327.074 178.499 327.595 178.353 328.129 178.324C328.663 178.295 329.197 178.382 329.694 178.58C330.116 178.745 330.5 178.993 330.825 179.309C331.149 179.625 331.407 180.003 331.583 180.421C331.759 180.839 331.849 181.287 331.848 181.74C331.847 182.193 331.756 182.642 331.578 183.059C330.686 185.267 328.007 186.245 323.929 187.774L322.786 188.191Z" fill="#FF6584"/>
<path d="M318.083 219.703L317.551 218.61C315.68 214.677 314.433 212.111 315.325 209.904C315.488 209.481 315.733 209.095 316.048 208.768C316.362 208.442 316.738 208.182 317.155 208.003C317.572 207.825 318.02 207.732 318.473 207.73C318.926 207.728 319.375 207.817 319.793 207.992C320.288 208.195 320.732 208.503 321.096 208.895C321.459 209.287 321.733 209.754 321.899 210.262C322.371 210.011 322.892 209.866 323.426 209.837C323.96 209.807 324.494 209.894 324.99 210.092C325.412 210.257 325.797 210.505 326.122 210.821C326.446 211.138 326.704 211.516 326.88 211.933C327.055 212.351 327.146 212.8 327.145 213.253C327.144 213.706 327.052 214.154 326.875 214.571C325.983 216.779 323.303 217.758 319.226 219.286L318.083 219.703Z" fill="#FF6584"/>
</g>
<defs>
<clipPath id="clip0">
<rect width="436" height="251.159" fill="white"/>
</clipPath>
</defs>
</svg>
